<mxfile host="app.diagrams.net" modified="2023-05-12T15:31:58.587Z" agent="Mozilla/5.0 (Windows NT 10.0; Win64; x64) AppleWebKit/537.36 (KHTML, like Gecko) Chrome/113.0.0.0 Safari/537.36" etag="6eh_R-Hw-gu9q7jbpbxC" version="21.2.9" type="device">
  <diagram name="Page-1" id="e7e014a7-5840-1c2e-5031-d8a46d1fe8dd">
    <mxGraphModel dx="794" dy="732" grid="1" gridSize="10" guides="1" tooltips="1" connect="1" arrows="1" fold="1" page="1" pageScale="1" pageWidth="1169" pageHeight="826" background="#ffffff" math="0" shadow="0">
      <root>
        <mxCell id="0" />
        <mxCell id="1" parent="0" />
        <mxCell id="SxKo-OcmFjQGqQ5B9mya-41" value="Адміністратор&lt;br&gt;" style="shape=umlActor;verticalLabelPosition=bottom;verticalAlign=top;html=1;" parent="1" vertex="1">
          <mxGeometry x="50" y="73" width="30" height="60" as="geometry" />
        </mxCell>
        <mxCell id="SxKo-OcmFjQGqQ5B9mya-114" style="edgeStyle=orthogonalEdgeStyle;rounded=0;sketch=0;orthogonalLoop=1;jettySize=auto;html=1;exitX=0.5;exitY=0.5;exitDx=0;exitDy=0;exitPerimeter=0;entryX=1;entryY=0.5;entryDx=0;entryDy=0;endArrow=none;endFill=0;strokeColor=#000000;" parent="1" source="SxKo-OcmFjQGqQ5B9mya-43" target="SxKo-OcmFjQGqQ5B9mya-113" edge="1">
          <mxGeometry relative="1" as="geometry" />
        </mxCell>
        <mxCell id="SxKo-OcmFjQGqQ5B9mya-43" value="Читач&lt;br&gt;" style="shape=umlActor;verticalLabelPosition=bottom;verticalAlign=top;html=1;" parent="1" vertex="1">
          <mxGeometry x="1110" y="267" width="30" height="60" as="geometry" />
        </mxCell>
        <mxCell id="SxKo-OcmFjQGqQ5B9mya-47" value="Управління БД" style="ellipse;whiteSpace=wrap;html=1;" parent="1" vertex="1">
          <mxGeometry x="130" y="68" width="90" height="60" as="geometry" />
        </mxCell>
        <mxCell id="SxKo-OcmFjQGqQ5B9mya-49" value="" style="endArrow=none;html=1;entryX=0.012;entryY=0.573;entryDx=0;entryDy=0;entryPerimeter=0;exitX=0.5;exitY=0.5;exitDx=0;exitDy=0;exitPerimeter=0;" parent="1" source="SxKo-OcmFjQGqQ5B9mya-41" target="SxKo-OcmFjQGqQ5B9mya-47" edge="1">
          <mxGeometry width="50" height="50" relative="1" as="geometry">
            <mxPoint x="120" y="140" as="sourcePoint" />
            <mxPoint x="170" y="90" as="targetPoint" />
          </mxGeometry>
        </mxCell>
        <mxCell id="SxKo-OcmFjQGqQ5B9mya-62" style="edgeStyle=orthogonalEdgeStyle;rounded=0;orthogonalLoop=1;jettySize=auto;html=1;entryX=1;entryY=0.5;entryDx=0;entryDy=0;" parent="1" source="SxKo-OcmFjQGqQ5B9mya-50" target="SxKo-OcmFjQGqQ5B9mya-47" edge="1">
          <mxGeometry relative="1" as="geometry" />
        </mxCell>
        <mxCell id="SxKo-OcmFjQGqQ5B9mya-50" value="Керування користувачами" style="ellipse;whiteSpace=wrap;html=1;" parent="1" vertex="1">
          <mxGeometry x="350" y="60" width="100" height="50" as="geometry" />
        </mxCell>
        <mxCell id="SxKo-OcmFjQGqQ5B9mya-63" style="edgeStyle=orthogonalEdgeStyle;rounded=0;orthogonalLoop=1;jettySize=auto;html=1;entryX=1;entryY=0.5;entryDx=0;entryDy=0;" parent="1" source="SxKo-OcmFjQGqQ5B9mya-52" target="SxKo-OcmFjQGqQ5B9mya-47" edge="1">
          <mxGeometry relative="1" as="geometry" />
        </mxCell>
        <mxCell id="SxKo-OcmFjQGqQ5B9mya-52" value="Керування статтями" style="ellipse;whiteSpace=wrap;html=1;" parent="1" vertex="1">
          <mxGeometry x="350" y="267" width="100" height="50" as="geometry" />
        </mxCell>
        <mxCell id="SxKo-OcmFjQGqQ5B9mya-64" style="edgeStyle=orthogonalEdgeStyle;rounded=0;orthogonalLoop=1;jettySize=auto;html=1;entryX=1;entryY=0.5;entryDx=0;entryDy=0;endArrow=block;endFill=0;" parent="1" source="SxKo-OcmFjQGqQ5B9mya-56" target="SxKo-OcmFjQGqQ5B9mya-50" edge="1">
          <mxGeometry relative="1" as="geometry" />
        </mxCell>
        <mxCell id="SxKo-OcmFjQGqQ5B9mya-56" value="Додавання користувачів&lt;br&gt;" style="ellipse;whiteSpace=wrap;html=1;" parent="1" vertex="1">
          <mxGeometry x="610" y="18" width="100" height="50" as="geometry" />
        </mxCell>
        <mxCell id="SxKo-OcmFjQGqQ5B9mya-65" style="edgeStyle=orthogonalEdgeStyle;rounded=0;orthogonalLoop=1;jettySize=auto;html=1;endArrow=block;endFill=0;" parent="1" source="SxKo-OcmFjQGqQ5B9mya-57" target="SxKo-OcmFjQGqQ5B9mya-50" edge="1">
          <mxGeometry relative="1" as="geometry" />
        </mxCell>
        <mxCell id="SxKo-OcmFjQGqQ5B9mya-57" value="Видалення користувачів" style="ellipse;whiteSpace=wrap;html=1;" parent="1" vertex="1">
          <mxGeometry x="610" y="78" width="100" height="50" as="geometry" />
        </mxCell>
        <mxCell id="SxKo-OcmFjQGqQ5B9mya-66" style="edgeStyle=orthogonalEdgeStyle;rounded=0;orthogonalLoop=1;jettySize=auto;html=1;entryX=1;entryY=0.5;entryDx=0;entryDy=0;endArrow=block;endFill=0;" parent="1" source="SxKo-OcmFjQGqQ5B9mya-58" target="SxKo-OcmFjQGqQ5B9mya-50" edge="1">
          <mxGeometry relative="1" as="geometry" />
        </mxCell>
        <mxCell id="SxKo-OcmFjQGqQ5B9mya-58" value="Редагування користувачів" style="ellipse;whiteSpace=wrap;html=1;" parent="1" vertex="1">
          <mxGeometry x="610" y="138" width="100" height="50" as="geometry" />
        </mxCell>
        <mxCell id="SxKo-OcmFjQGqQ5B9mya-70" style="edgeStyle=orthogonalEdgeStyle;rounded=0;orthogonalLoop=1;jettySize=auto;html=1;entryX=1;entryY=0.5;entryDx=0;entryDy=0;endArrow=block;endFill=0;" parent="1" source="SxKo-OcmFjQGqQ5B9mya-67" target="SxKo-OcmFjQGqQ5B9mya-52" edge="1">
          <mxGeometry relative="1" as="geometry" />
        </mxCell>
        <mxCell id="SxKo-OcmFjQGqQ5B9mya-67" value="Додавання статтей" style="ellipse;whiteSpace=wrap;html=1;" parent="1" vertex="1">
          <mxGeometry x="610" y="290" width="100" height="50" as="geometry" />
        </mxCell>
        <mxCell id="SxKo-OcmFjQGqQ5B9mya-71" style="edgeStyle=orthogonalEdgeStyle;rounded=0;orthogonalLoop=1;jettySize=auto;html=1;entryX=1;entryY=0.5;entryDx=0;entryDy=0;endArrow=block;endFill=0;" parent="1" source="SxKo-OcmFjQGqQ5B9mya-68" target="SxKo-OcmFjQGqQ5B9mya-52" edge="1">
          <mxGeometry relative="1" as="geometry" />
        </mxCell>
        <mxCell id="SxKo-OcmFjQGqQ5B9mya-68" value="Видалення статтей" style="ellipse;whiteSpace=wrap;html=1;" parent="1" vertex="1">
          <mxGeometry x="610" y="350" width="100" height="50" as="geometry" />
        </mxCell>
        <mxCell id="SxKo-OcmFjQGqQ5B9mya-73" style="edgeStyle=orthogonalEdgeStyle;rounded=0;orthogonalLoop=1;jettySize=auto;html=1;entryX=1;entryY=0.5;entryDx=0;entryDy=0;endArrow=block;endFill=0;" parent="1" source="SxKo-OcmFjQGqQ5B9mya-69" target="SxKo-OcmFjQGqQ5B9mya-52" edge="1">
          <mxGeometry relative="1" as="geometry" />
        </mxCell>
        <mxCell id="SxKo-OcmFjQGqQ5B9mya-69" value="Редагування статтей" style="ellipse;whiteSpace=wrap;html=1;" parent="1" vertex="1">
          <mxGeometry x="610" y="410" width="100" height="50" as="geometry" />
        </mxCell>
        <mxCell id="SxKo-OcmFjQGqQ5B9mya-80" value="include&lt;br&gt;" style="text;html=1;strokeColor=none;fillColor=none;align=center;verticalAlign=middle;whiteSpace=wrap;rounded=0;" parent="1" vertex="1">
          <mxGeometry x="300" y="60" width="40" height="20" as="geometry" />
        </mxCell>
        <mxCell id="SxKo-OcmFjQGqQ5B9mya-81" value="include&lt;br&gt;" style="text;html=1;strokeColor=none;fillColor=none;align=center;verticalAlign=middle;whiteSpace=wrap;rounded=0;" parent="1" vertex="1">
          <mxGeometry x="300" y="265" width="40" height="20" as="geometry" />
        </mxCell>
        <mxCell id="SxKo-OcmFjQGqQ5B9mya-111" style="edgeStyle=orthogonalEdgeStyle;rounded=0;sketch=0;orthogonalLoop=1;jettySize=auto;html=1;exitX=0;exitY=0.5;exitDx=0;exitDy=0;entryX=1;entryY=0.5;entryDx=0;entryDy=0;endArrow=block;endFill=0;strokeColor=#000000;" parent="1" source="SxKo-OcmFjQGqQ5B9mya-110" target="SxKo-OcmFjQGqQ5B9mya-50" edge="1">
          <mxGeometry relative="1" as="geometry" />
        </mxCell>
        <mxCell id="SxKo-OcmFjQGqQ5B9mya-110" value="Керування чорним списком" style="ellipse;whiteSpace=wrap;html=1;" parent="1" vertex="1">
          <mxGeometry x="610" y="200" width="100" height="50" as="geometry" />
        </mxCell>
        <mxCell id="SxKo-OcmFjQGqQ5B9mya-113" value="Пошук статті" style="ellipse;whiteSpace=wrap;html=1;" parent="1" vertex="1">
          <mxGeometry x="960" y="55" width="100" height="50" as="geometry" />
        </mxCell>
        <mxCell id="SxKo-OcmFjQGqQ5B9mya-117" style="edgeStyle=orthogonalEdgeStyle;rounded=0;sketch=0;orthogonalLoop=1;jettySize=auto;html=1;entryX=0;entryY=0.5;entryDx=0;entryDy=0;endArrow=classicThin;endFill=1;strokeColor=#000000;" parent="1" source="SxKo-OcmFjQGqQ5B9mya-115" target="SxKo-OcmFjQGqQ5B9mya-113" edge="1">
          <mxGeometry relative="1" as="geometry" />
        </mxCell>
        <mxCell id="SxKo-OcmFjQGqQ5B9mya-115" value="Пошук за назвою" style="ellipse;whiteSpace=wrap;html=1;" parent="1" vertex="1">
          <mxGeometry x="730" y="18" width="100" height="50" as="geometry" />
        </mxCell>
        <mxCell id="SxKo-OcmFjQGqQ5B9mya-118" style="edgeStyle=orthogonalEdgeStyle;rounded=0;sketch=0;orthogonalLoop=1;jettySize=auto;html=1;entryX=0;entryY=0.5;entryDx=0;entryDy=0;endArrow=classicThin;endFill=1;strokeColor=#000000;" parent="1" source="SxKo-OcmFjQGqQ5B9mya-116" target="SxKo-OcmFjQGqQ5B9mya-113" edge="1">
          <mxGeometry relative="1" as="geometry" />
        </mxCell>
        <mxCell id="SxKo-OcmFjQGqQ5B9mya-116" value="Пошук за автором" style="ellipse;whiteSpace=wrap;html=1;" parent="1" vertex="1">
          <mxGeometry x="730" y="100" width="100" height="50" as="geometry" />
        </mxCell>
        <mxCell id="SxKo-OcmFjQGqQ5B9mya-119" value="Extend" style="edgeLabel;html=1;align=center;verticalAlign=middle;resizable=0;points=[];" parent="1" vertex="1" connectable="0">
          <mxGeometry x="860.0006896551723" y="33" as="geometry" />
        </mxCell>
        <mxCell id="SxKo-OcmFjQGqQ5B9mya-120" value="Extend" style="edgeLabel;html=1;align=center;verticalAlign=middle;resizable=0;points=[];" parent="1" vertex="1" connectable="0">
          <mxGeometry x="860.0006896551723" y="118" as="geometry" />
        </mxCell>
      </root>
    </mxGraphModel>
  </diagram>
</mxfile>
